<?xml version="1.0" standalone="no"?>
<!DOCTYPE svg PUBLIC "-//W3C//DTD SVG 1.1//EN" "http://www.w3.org/Graphics/SVG/1.1/DTD/svg11.dtd" >
<svg xmlns="http://www.w3.org/2000/svg">
<metadata>
Created by FontForge 20120731 at Mon Jun  5 11:05:30 2017
 By admin
</metadata>
<defs>
<font id="iconfont" horiz-adv-x="1024" >
  <font-face 
    font-family="iconfont"
    font-weight="500"
    font-stretch="normal"
    units-per-em="1024"
    panose-1="2 0 6 3 0 0 0 0 0 0"
    ascent="896"
    descent="-128"
    x-height="792"
    bbox="44 -69 1161 832"
    underline-thickness="0"
    underline-position="0"
    unicode-range="U+0078-E644"
  />
<missing-glyph 
 />
    <glyph glyph-name=".notdef" 
 />
    <glyph glyph-name=".notdef" 
 />
    <glyph glyph-name=".null" horiz-adv-x="0" 
 />
    <glyph glyph-name="nonmarkingreturn" horiz-adv-x="341" 
 />
    <glyph glyph-name="x" unicode="x" horiz-adv-x="1001" 
d="M281 543q-27 -1 -53 -1h-83q-18 0 -36.5 -6t-32.5 -18.5t-23 -32t-9 -45.5v-76h912v41q0 16 -0.5 30t-0.5 18q0 13 -5 29t-17 29.5t-31.5 22.5t-49.5 9h-133v-97h-438v97zM955 310v-52q0 -23 0.5 -52t0.5 -58t-10.5 -47.5t-26 -30t-33 -16t-31.5 -4.5q-14 -1 -29.5 -0.5
t-29.5 0.5h-32l-45 128h-439l-44 -128h-29h-34q-20 0 -45 1q-25 0 -41 9.5t-25.5 23t-13.5 29.5t-4 30v167h911zM163 247q-12 0 -21 -8.5t-9 -21.5t9 -21.5t21 -8.5q13 0 22 8.5t9 21.5t-9 21.5t-22 8.5zM316 123q-8 -26 -14 -48q-5 -19 -10.5 -37t-7.5 -25t-3 -15t1 -14.5
t9.5 -10.5t21.5 -4h37h67h81h80h64h36q23 0 34 12t2 38q-5 13 -9.5 30.5t-9.5 34.5q-5 19 -11 39h-368zM336 498v228q0 11 2.5 23t10 21.5t20.5 15.5t34 6h188q31 0 51.5 -14.5t20.5 -52.5v-227h-327z" />
    <glyph glyph-name="loading" unicode="&#xe644;" 
d="M512 608v0q-14 0 -23 9.5t-9 22.5v0v0v64v96q0 13 9.5 22.5t22.5 9.5t22.5 -9.5t9.5 -22.5v-96v-64q0 -13 -9.5 -22.5t-22.5 -9.5zM512 -64v0q-13 0 -22.5 9.5t-9.5 22.5v96v64v0v0q0 13 9.5 22.5t22.5 9.5t22.5 -9t9.5 -23v-0.5v-2.5v-5.5v-8.5v-11v-15.5v-20.5v-96
q0 -13 -9.5 -22.5t-22.5 -9.5v0zM331 533v0q-14 0 -23 10v0l-45 45l-68 68q-9 9 -9 22t9.5 22.5t22.5 9.5t22 -9l68 -68l46 -46q9 -9 9 -22t-9.5 -22.5t-22.5 -9.5zM806 58v0q-13 0 -22 9l-68 68q-36 35 -45 45v0q-10 9 -10 23q0 13 9.5 22.5t22.5 9.5t22 -9q8 -7 46 -46
l68 -67q9 -10 9 -23t-9.5 -22.5t-22.5 -9.5v0zM224 58v0q13 0 23 9l68 68q7 8 13.5 14.5l11 11l8 8t6 5.5t3.5 3.5t2 2l1 0.5q9 9 9 23q0 13 -9.5 22.5t-22.5 9.5t-22 -9q-8 -7 -46 -46l-68 -67q-9 -10 -9 -23t9.5 -22.5t22.5 -9.5v0zM256 352v0v0h-6.5h-19.5h-38h-96
q-13 0 -22.5 9.5t-9.5 22.5t9.5 22.5t22.5 9.5h96h64q13 0 22.5 -9.5t9.5 -22.5v0q0 -14 -9.5 -23t-22.5 -9zM768 352q-13 0 -22.5 9.5t-9.5 22.5v0q0 13 9.5 22.5t22.5 9.5h0.5h2.5h5.5h8.5h11.5h15.5h20h96q13 0 22.5 -9.5t9.5 -22.5t-9.5 -22.5t-22.5 -9.5h-96h-64v0z
M693 533q-13 0 -22.5 9.5t-9.5 22.5t9 22q7 8 46 46l67 68q10 9 23 9t22.5 -9.5t9.5 -22.5t-9 -22l-68 -68q-34 -34 -44 -45h-1q-10 -10 -23 -10v0z" />
    <glyph glyph-name="menu" unicode="&#xe601;" 
d="M64 686v99h895v-99h-895zM64 338v99h895v-99h-895zM64 -10v99h895v-99h-895z" />
    <glyph glyph-name="stopwatch" unicode="&#xe602;" 
d="M429 240q-21 -39 -11 -67.5t44 -46.5q31 -20 65.5 -13t56.5 43q27 45 123 272.5t84.5 233.5t-173 -185.5t-189.5 -236.5zM513 558q28 0 57 -5q34 40 63 73q-59 16 -120 16q-123 0 -225.5 -59.5t-161.5 -163t-59 -228.5q0 -23 2 -46q2 -17 16 -28.5t32.5 -9.5t30.5 15
t10 30q-2 19 -2 39v0q0 101 47 185.5t129 133t181 48.5zM835 506q-17 -42 -37 -91q72 -98 72 -224q0 -20 -2 -39q-2 -18 10 -31t30 -15h4q17 0 30 11t14 27q3 22 3 47v0q0 91 -32.5 172t-91.5 143z" />
    <glyph glyph-name="export" unicode="&#xe603;" 
d="M540 160h-56q-12 0 -20 -8t-8 -19.5t8 -20t20 -8.5h56q12 0 20 8.5t8 20t-8 19.5t-20 8zM537 594q-10 13 -25.5 13t-26.5 -13l-130 -150q-13 -15 -11 -36q2 -10 9.5 -17t17.5 -7h85v-140q0 -12 8 -20t20 -8h56q12 0 20 8t8 20v140h83q11 0 18.5 7t8.5 17q3 21 -10 36z
M512 832q-91 0 -174 -35.5t-143 -95.5t-95.5 -143t-35.5 -174t35.5 -174t95.5 -143t143 -95.5t174 -35.5t174 35.5t143 95.5t95.5 143t35.5 174t-35.5 174t-95.5 143t-143 95.5t-174 35.5zM512 -8q-106 0 -196.5 52.5t-143 143t-52.5 196.5t52.5 196.5t143 143t196.5 52.5
t196.5 -52.5t143 -143t52.5 -196.5t-52.5 -196.5t-143 -143t-196.5 -52.5z" />
    <glyph glyph-name="search-table" unicode="&#xe604;" 
d="M858 831h-692q-41 0 -71 -30t-30 -72v-690q0 -42 30 -72t71 -30h265v75h-265q-11 0 -19 8t-8 19v690q0 11 8 19t19 8h692q11 0 19 -8t8 -19v-271h74v271q0 42 -30 72t-71 30zM899 235q0 99 -69.5 168.5t-168.5 69.5q-64 0 -120 -32q-38 -20 -64 -54q-54 -66 -54 -152
q0 -99 69.5 -168.5t168.5 -69.5q80 0 144 48l98 -98l51 51l-99 99q44 62 44 138zM661 71q-68 0 -116 48t-48 116t48 116t116 48t116 -48t48 -116t-48 -116t-116 -48z" />
    <glyph glyph-name="search-header" unicode="&#xe605;" 
d="M456 533h-239v-72h239v72zM900 235q0 99 -70 168.5t-169 69.5q-64 0 -120 -32q-38 -20 -64 -54q-54 -66 -54 -152q0 -99 69.5 -169t168.5 -70q80 0 144 49l98 -99l52 52l-99 99q44 62 44 138zM661 71q-68 0 -116 48t-48 116t48 116t116 48t116 -48t48 -116t-48 -116
t-116 -48zM858 831h-692q-42 0 -71.5 -29.5t-29.5 -71.5v-692q0 -42 29.5 -71.5t71.5 -29.5h265v74h-265q-11 0 -19 8t-8 19v692q0 11 8 19t19 8h692q11 0 19 -8t8 -19v-272h74v272q0 42 -29.5 71.5t-71.5 29.5zM807 681h-590v-72h590v72zM217 312h149v72h-149v-72z" />
    <glyph glyph-name="notice" unicode="&#xe606;" 
d="M645 56q0 -50 -39 -85t-94 -35t-94 35t-39 85h266zM600 752q0 33 -25.5 56.5t-62.5 23.5t-62.5 -23.5t-25.5 -56.5q0 -7 1 -13q-95 -30 -158.5 -111.5t-63.5 -183.5v-110q0 -2 -0.5 -5.5t-0.5 -14t-1 -21t-2.5 -25t-3.5 -26.5t-5.5 -24.5t-7.5 -21.5t-10 -15t-13 -6
q-19 0 -32 -11.5t-13 -28t13 -28t31 -11.5h708q18 0 31 11.5t13 28t-13 28t-31 11.5q-13 0 -22 16.5t-13 39.5t-6.5 46.5t-2.5 39.5l-1 16v111q0 103 -62 184.5t-160 110.5q1 6 1 13v0z" />
    <glyph glyph-name="lock" unicode="&#xe607;" 
d="M784 474h-408v149q0 38 40.5 71t95 33t95.5 -33t41 -71v-45v0q3 -19 18 -32t35 -13t34.5 13t17.5 32h1v45q0 86 -71 147t-171 61t-171 -61t-71 -147v-149h-30q-38 0 -64.5 -26.5t-26.5 -63.5v-358q0 -37 26.5 -63t64.5 -26h544q38 0 64.5 26t26.5 63v358
q-1 37 -27.5 63.5t-63.5 26.5zM557 144v-41q0 -19 -13.5 -32.5t-32.5 -13.5q-18 0 -31.5 13.5t-13.5 32.5v41q-27 12 -43.5 37t-16.5 56q0 42 31 72.5t74.5 30.5t74.5 -30.5t31 -72.5q0 -31 -16.5 -56t-43.5 -37z" />
    <glyph glyph-name="signout" unicode="&#xe608;" 
d="M574 246h-8h-128h-128q-20 0 -23 16q-1 2 -1 6v228q0 22 23 22h258h7v7v202q0 15 12 19q14 5 23 -5q2 -2 6.5 -6t5.5 -5l76.5 -76.5l68.5 -68.5q26 -26 60 -59t67 -67t60 -59q16 -16 0 -31q-217 -216 -267 -266q-12 -12 -37.5 -37t-38.5 -39q-11 -10 -23 -6q-13 5 -13 21
v196v8zM415 744v-76h-7h-196q-31 0 -51 -20.5t-20 -51.5q0 -375 -1 -428q0 -26 17 -45.5t39 -24.5q8 -1 18 -1h193h8v-76q-3 -1 -4 -1h-205q-51 1 -90.5 34.5t-49.5 83.5q-2 14 -2 28q-1 328 0 432q0 88 83 132q26 14 59 14q29 1 205 1l2 -1h2z" />
    <glyph glyph-name="calendar" unicode="&#xe609;" 
d="M385 295h-128v131h128v-131zM578 426h-128v-131h128v131zM771 426h-128v-131h128v131zM385 235h-128v-130h128v130zM578 235h-128v-130h128v130zM771 235h-128v-130h128v130zM819 690q0 -17 -11.5 -29t-28 -12t-28 12t-11.5 29v101q0 17 11.5 28.5t28 11.5t28 -11.5
t11.5 -28.5v-101zM286 791q0 17 -11.5 28.5t-28 11.5t-28 -11.5t-11.5 -28.5v-101q0 -17 11.5 -28.5t28 -11.5t28 11.5t11.5 28.5v101zM867 732v-41q0 -37 -25.5 -63t-61.5 -26t-62 26t-26 63v41h-358v-41q0 -36 -25.5 -62.5t-62 -26.5t-62 26.5t-25.5 62.5v41h-94v-795h894
v795h-92zM872 25h-720v493h720v-493v0z" />
    <glyph glyph-name="compute" unicode="&#xe60a;" 
d="M866 767h-708q-37 0 -63 -25.5t-26 -61.5v-479q0 -36 25.5 -66.5t61.5 -37.5l194 -38l-63 -26q-68 -32 3 -32h444q78 0 -10 38q-44 20 -50 20l194 38q36 7 61.5 37.5t25.5 66.5v479q0 36 -26 61.5t-63 25.5zM866 205h-708v484h708v-484z" />
    <glyph glyph-name="chart" unicode="&#xe60b;" 
d="M944 741l-211 -354q-5 -9 -15 -10.5t-19 6.5l-102 98q-8 8 -18 6.5t-17 -10.5l-143 -222q-6 -10 -16.5 -11.5t-18.5 6.5l-67 63q-8 7 -19 6.5t-18 -9.5l-210 -270q-7 -9 -4 -15t14 -6h879v718q0 11 -4.5 12.5t-10.5 -8.5z" />
    <glyph glyph-name="gear" unicode="&#xe60c;" 
d="M942 285q-5 4 -11 7q-29 11 -47 35.5t-18 57.5t21.5 59.5t50.5 36.5q8 3 15 12.5t5 25.5q-3 28 -14.5 55.5t-25.5 40.5q-8 8 -19 9t-18 -4q-29 -14 -62.5 -11.5t-56.5 25.5t-28 54t8 58q2 4 4 13.5t-3 16.5q-8 13 -21 23.5t-28 17t-31 10.5t-30 4q-8 0 -16 -8t-12 -16
q-11 -29 -37 -47.5t-59 -18.5t-57 19.5t-34 45.5q-3 8 -10 16.5t-20 8.5q-9 0 -26 -3q-16 -4 -33 -11q-17 -6 -32 -16.5t-21 -23.5q-3 -6 -1.5 -13.5t3.5 -13.5q1 -5 2 -19q2 -13 0.5 -29.5t-7 -33.5t-16.5 -28q-24 -23 -55 -27.5t-60 7.5q-9 3 -16 3.5t-15 -3.5
q-9 -6 -18 -18q-8 -12 -14 -26q-13 -30 -15 -63q0 5 1 10v3v-8q0 -11 6 -22.5t14 -14.5q29 -11 52 -36t23 -59q0 -32 -23 -58.5t-52 -38.5q-16 -5 -19 -26q-2 -12 2 -30q7 -33 25 -61l-5 8q2 -4 7 -12q9 -14 20 -18q13 -5 27 -2q21 7 41 8q17 1 36 -3.5t33 -18.5
q22 -24 24.5 -52.5t-8.5 -50.5q-8 -16 -7 -25t5 -16q7 -10 20.5 -19.5t30.5 -16.5q42 -19 91 -23v0l-32 6h4q12 0 21.5 5.5t14.5 16.5q10 29 36.5 50.5t59.5 21.5t58.5 -21.5t36.5 -51.5h1q3 -8 10 -14q8 -7 16 -7q13 0 29 4t31.5 10.5t27.5 14.5q12 9 18 16q12 19 3 39
q-13 27 -9 58t27 55q11 12 25.5 16.5t29.5 6t29.5 -1t23.5 -5.5q11 -4 19 -4q9 0 20.5 6t21 19.5t16.5 30.5t9.5 33t1.5 28q-4 13 -15 22zM703 304q-16 -38 -44 -66.5t-67 -45.5q-38 -16 -81 -16t-81 16.5t-66.5 45t-44.5 66.5t-16 81.5t16 81.5t44.5 66t66.5 44.5t81 16.5
t81.5 -16.5t66.5 -44.5t44.5 -66t16.5 -81.5t-17 -81.5z" />
    <glyph glyph-name="arrow" unicode="&#xe60d;" 
d="M773 384l-469 448l-53 -51l416 -397l-416 -397l53 -51z" />
    <glyph glyph-name="arrow-full" unicode="&#xe60e;" 
d="M512 160l-448 448h896z" />
    <glyph glyph-name="page" unicode="&#xe60f;" horiz-adv-x="1161" 
d="M1147 326q-1 -2 1 -3t3 1q8 13 6 14q-1 0 -5.5 -5.5t-4.5 -6.5zM1149 335h2q0 1 1 2h-3v0q-5 0 -8.5 -3.5t-3.5 -8.5v-2t1 -1t1 1v0v2q0 10 10 10zM1158 333q-1 -1 -1 -2q2 -3 2 -6v-2v0q0 -1 1 -1v0q1 0 1 1v2q0 5 -3 8zM716 221h-407q-17 0 -29 -12t-12 -28.5t12 -28.5
t29 -12h407q17 0 29 12t12 29t-12 28.5t-29 11.5zM716 384h-407q-17 0 -29 -12t-12 -29t12 -29t29 -12l407 1q17 0 29 12t12 28.5t-12 28.5t-29 12zM878 706v0v44q0 33 -24 57t-57 24h-41v0h-120q-17 0 -28.5 -12t-11.5 -29t11.5 -28.5t28.5 -11.5h105q29 -3 41.5 -15.5
t14.5 -42.5v-623v32q0 -51 -15.5 -66.5t-64.5 -16.5h9h-419q-46 1 -62 14.5t-17 55.5v4v9v-4v368h203q34 0 57.5 24t23.5 57v41h1l-1 195q5 22 -11 37q-8 9 -20 11l-9 2v0q-22 0 -34 -19l-271 -272q-5 -3 -9 -6q-12 -12 -12 -30q0 -4 1 -8v-483q2 -32 25 -54.5t56 -23.5
l572 1q33 1 55.5 24.5t22.5 56.5v43v0v645zM431 691v-67q0 -47 -16 -62.5t-66 -15.5l82 1v73v-74h-145z" />
    <glyph glyph-name="close" unicode="&#xe610;" 
d="M919 -61l-854 850l40 40l854 -850zM107 -63l-40 40l850 854l40 -40z" />
    <glyph glyph-name="edit" unicode="&#xe611;" 
d="M66 729v-690q0 -42 30 -71.5t71 -29.5h690q41 0 71 29.5t30 71.5v462h-74v-462q0 -11 -8 -19t-19 -8h-690q-11 0 -19 8t-8 19v690q0 11 8 19t19 8h469v74h-469q-41 0 -71 -29.5t-30 -71.5zM264 556h198v-74h-198v74zM264 310h496v-75h-496v75zM958 777l-350 -350l-53 53
l350 350z" />
    <glyph glyph-name="save" unicode="&#xe612;" 
d="M760 757l125 -94v-625q0 -11 -8 -19t-19 -8h-692q-11 0 -19 8t-8 19v692q0 11 8 19t19 8h594zM785 831h-619q-42 0 -71.5 -29.5t-29.5 -71.5v-692q0 -42 29.5 -71.5t71.5 -29.5h692q42 0 71.5 29.5t29.5 71.5v662zM686 757v-149h-348v149h348zM760 831h-496v-298h496v298
zM736 260v-249h-448v249h448zM810 334h-596v-397h596v397zM363 185h298v-74h-298v74z" />
    <glyph glyph-name="delete" unicode="&#xe613;" 
d="M164 666v-628q0 -42 29.5 -72t71.5 -30h494q42 0 71.5 30t29.5 72v628h-74v-628q0 -12 -8 -19.5t-19 -7.5h-494q-11 0 -19 7.5t-8 19.5v628h-74zM64 707h896v-74h-896v74zM375 533h75v-448h-75v448zM574 533h75v-448h-75v448zM313 832h398v-75h-398v75zM313 832h75v-149
h-75v149zM636 832h75v-149h-75v149z" />
    <glyph glyph-name="useless" unicode="&#xe614;" 
d="M65 38v692q0 42 29.5 71.5t72.5 29.5h690q43 0 72.5 -29.5t29.5 -71.5v-215h-75v215q0 11 -7.5 19t-19.5 8h-690q-12 0 -20 -8t-8 -19v-692q0 -11 8 -19t20 -8h221v-74h-221q-43 0 -72.5 29.5t-29.5 71.5zM474 1l421 421l53 -52l-422 -422zM895 -52l-421 422l52 52
l422 -421z" />
    <glyph glyph-name="useful" unicode="&#xe615;" 
d="M64 37v694q0 42 29.5 71.5t72.5 29.5h692q43 0 72.5 -29.5t29.5 -71.5v-216h-75v216q0 11 -7.5 19t-19.5 8h-692q-12 0 -19.5 -8t-7.5 -19v-694q0 -11 7.5 -19t19.5 -8h122v-74h-122q-43 0 -72.5 29.5t-29.5 71.5zM485 -11l422 422l53 -53l-422 -422zM538 -64l-282 282
l53 52l282 -281z" />
    <glyph glyph-name="new" unicode="&#xe616;" 
d="M958 310h-892v148h892v-148zM586 830v-892h-148v892h148z" />
    <glyph glyph-name="unlock" unicode="&#xe617;" 
d="M423 303v-163q0 -12 9 -21t21.5 -9t21.5 9t9 21v163q0 12 -9 21t-21.5 9t-21.5 -9t-9 -21zM758 -2h-610v447h547l61 61h-59v81q0 101 -71.5 172.5t-172.5 71.5t-172.5 -71.5t-71.5 -172.5v-81h-61q-25 0 -43 -18t-18 -43v-447q0 -25 18 -43t43 -18h610q25 0 43 18t18 43
v243l-61 -61v-182zM270 587q0 76 54 129.5t129.5 53.5t129 -53.5t53.5 -129.5v-81h-366v81zM937 475l-316 -316l-48 47l316 316z" />
    <glyph glyph-name="locked" unicode="&#xe618;" 
d="M810 526h-79q0 96 -64.5 161t-158.5 65t-158.5 -65t-64.5 -161h-80q0 77 40 147.5t111 114.5t152 44t151.5 -44t110.5 -115t40 -147zM912 395q0 33 -23.5 56.5t-56.5 23.5h-640q-33 0 -56.5 -23.5t-23.5 -56.5v-379q0 -33 23.5 -56.5t56.5 -23.5h640q33 0 56.5 23.5
t23.5 56.5v379v0zM575 98q0 -24 -17.5 -42t-42.5 -18h-8q-25 0 -42.5 17.5t-17.5 42.5v163q0 25 17.5 42.5t42.5 17.5h8q25 0 42.5 -17.5t17.5 -42.5v-163zM575 98z" />
    <glyph glyph-name="user" unicode="&#xe619;" 
d="M507.5 399q89.5 0 153 63.5t63.5 153t-63.5 153t-153 63.5t-153 -63.5t-63.5 -153t63.5 -153t153 -63.5zM657 419l-146 -228l-140 233q-109 -43 -176 -149t-66 -264q392 -149 766 0q-2 153 -67.5 257.5t-170.5 150.5z" />
    <glyph glyph-name="building" unicode="&#xe61a;" 
d="M945 14h-44v540v0q0 23 -20 35l-222 129q-9 6 -21 6q-17 0 -28.5 -12t-11.5 -29v-669h-47v775v0q0 17 -12 29t-29 12q-8 0 -16 -3l-346 -149q-25 -10 -25 -37v-627h-44v0q-6 0 -10 -4.5t-4 -10.5v0v-47q0 -6 4 -10t10 -4h866q6 0 10 4t4 10v47q0 6 -4 10.5t-10 4.5v0z
M710 572q0 6 4.5 10.5t10.5 4.5h46q6 0 10 -4.5t4 -10.5v-46q0 -6 -4 -10t-10 -4h-46q-6 0 -10.5 4t-4.5 10v46zM710 457q0 6 4.5 10t10.5 4h46q6 0 10 -4t4 -10v-46v0q0 -6 -4 -10.5t-10 -4.5v0h-46v0q-6 0 -10.5 4.5t-4.5 10.5v0v46zM710 341q0 6 4.5 10t10.5 4h46v0
q6 0 10 -4t4 -10v0v-46v0q0 -6 -4 -10.5t-10 -4.5v0h-46v0q-6 0 -10.5 4.5t-4.5 10.5v0v46zM710 225q0 6 4.5 10.5t10.5 4.5h46q6 0 10 -4.5t4 -10.5v-46q0 -6 -4 -10t-10 -4h-46q-6 0 -10.5 4t-4.5 10v46zM710 109q0 6 4.5 10.5t10.5 4.5h46q6 0 10 -4.5t4 -10.5v-45v0
q0 -6 -4 -10.5t-10 -4.5v0h-46v0q-6 0 -10.5 4.5t-4.5 10.5v45zM369 688q0 6 4 10t10 4h46q6 0 10.5 -4t4.5 -10v-46v0q0 -6 -4.5 -10t-10.5 -4v0h-46v0q-6 0 -10 4t-4 10v46zM369 572q0 6 4 10.5t10 4.5h46q6 0 10.5 -4.5t4.5 -10.5v-46q0 -6 -4.5 -10t-10.5 -4h-46
q-6 0 -10 4t-4 10v46zM369 457q0 6 4 10t10 4h46q6 0 10.5 -4t4.5 -10v-46q0 -6 -4.5 -10.5t-10.5 -4.5h-46q-6 0 -10 4.5t-4 10.5v0v46zM369 341q0 6 4 10t10 4h46q6 0 10.5 -4t4.5 -10v-46q0 -6 -4.5 -10.5t-10.5 -4.5h-46q-6 0 -10 4.5t-4 10.5v0v46zM369 225q0 6 4 10.5
t10 4.5h46q6 0 10.5 -4.5t4.5 -10.5v-46q0 -6 -4.5 -10t-10.5 -4h-46q-6 0 -10 4t-4 10v46zM369 109q0 6 4 10.5t10 4.5h46q6 0 10.5 -4.5t4.5 -10.5v-45q0 -6 -4.5 -10.5t-10.5 -4.5v0h-46v0q-6 0 -10 4.5t-4 10.5v0v45zM229 572q0 6 4.5 10.5t10.5 4.5h46q6 0 10 -4.5
t4 -10.5v-46q0 -6 -4 -10t-10 -4h-46q-6 0 -10.5 4t-4.5 10v46zM229 457q0 6 4.5 10t10.5 4h46q6 0 10 -4t4 -10v-46q0 -6 -4 -10.5t-10 -4.5h-46v0q-6 0 -10.5 4.5t-4.5 10.5v0v46zM229 341q0 6 4.5 10t10.5 4h46q6 0 10 -4t4 -10v-46q0 -6 -4 -10.5t-10 -4.5h-46v0
q-6 0 -10.5 4.5t-4.5 10.5v0v46zM229 225q0 6 4.5 10.5t10.5 4.5h46q6 0 10 -4.5t4 -10.5v-46q0 -6 -4 -10t-10 -4h-46q-6 0 -10.5 4t-4.5 10v46zM229 109q0 6 4.5 10.5t10.5 4.5h46q6 0 10 -4.5t4 -10.5v-45q0 -6 -4 -10.5t-10 -4.5v0h-46v0q-6 0 -10.5 4.5t-4.5 10.5v45z
M229 109z" />
  </font>
</defs>
</svg>
